<mxfile host="app.diagrams.net" modified="2024-01-11T09:16:21.071Z" agent="Mozilla/5.0 (Windows NT 10.0; Win64; x64) AppleWebKit/537.36 (KHTML, like Gecko) Chrome/120.0.0.0 Safari/537.36" etag="qre_raA4lfFxN2yWof1_" version="22.1.18" type="github">
  <diagram name="Page-1" id="e7e014a7-5840-1c2e-5031-d8a46d1fe8dd">
    <mxGraphModel dx="3218" dy="1880" grid="1" gridSize="10" guides="1" tooltips="1" connect="1" arrows="1" fold="1" page="1" pageScale="1" pageWidth="1169" pageHeight="826" background="none" math="0" shadow="0">
      <root>
        <mxCell id="0" />
        <mxCell id="1" parent="0" />
        <mxCell id="GFefVMlEvLliyub19L3t-89" value="" style="whiteSpace=wrap;html=1;shape=mxgraph.basic.cloud_rect" vertex="1" parent="1">
          <mxGeometry x="-240" y="380" width="1590" height="750" as="geometry" />
        </mxCell>
        <mxCell id="GFefVMlEvLliyub19L3t-44" value="Mở Telegram Web" style="rounded=0;whiteSpace=wrap;html=1;" vertex="1" parent="1">
          <mxGeometry x="240" y="130" width="120" height="60" as="geometry" />
        </mxCell>
        <mxCell id="GFefVMlEvLliyub19L3t-45" value="Kiểm tra đăng nhập" style="rhombus;whiteSpace=wrap;html=1;" vertex="1" parent="1">
          <mxGeometry x="242.5" y="230" width="115" height="100" as="geometry" />
        </mxCell>
        <mxCell id="GFefVMlEvLliyub19L3t-46" value="" style="endArrow=classic;html=1;rounded=0;exitX=0.5;exitY=1;exitDx=0;exitDy=0;" edge="1" parent="1" source="GFefVMlEvLliyub19L3t-44" target="GFefVMlEvLliyub19L3t-45">
          <mxGeometry width="50" height="50" relative="1" as="geometry">
            <mxPoint x="560" y="410" as="sourcePoint" />
            <mxPoint x="610" y="360" as="targetPoint" />
          </mxGeometry>
        </mxCell>
        <mxCell id="GFefVMlEvLliyub19L3t-49" value="&lt;font style=&quot;font-size: 14px;&quot;&gt;Kiểm tra tệp đã được tải&lt;/font&gt;" style="rhombus;whiteSpace=wrap;html=1;" vertex="1" parent="1">
          <mxGeometry x="220.63" y="445" width="153.75" height="150" as="geometry" />
        </mxCell>
        <mxCell id="GFefVMlEvLliyub19L3t-50" value="Chuyển sang tải tệp tiếp theo" style="rounded=0;whiteSpace=wrap;html=1;" vertex="1" parent="1">
          <mxGeometry x="237.5" y="1020" width="120" height="60" as="geometry" />
        </mxCell>
        <mxCell id="GFefVMlEvLliyub19L3t-51" value="Bắt đầu" style="ellipse;whiteSpace=wrap;html=1;" vertex="1" parent="1">
          <mxGeometry x="240" y="-40" width="120" height="80" as="geometry" />
        </mxCell>
        <mxCell id="GFefVMlEvLliyub19L3t-52" value="" style="endArrow=classic;html=1;rounded=0;exitX=0.5;exitY=1;exitDx=0;exitDy=0;entryX=0.5;entryY=0;entryDx=0;entryDy=0;" edge="1" parent="1" source="GFefVMlEvLliyub19L3t-51" target="GFefVMlEvLliyub19L3t-44">
          <mxGeometry width="50" height="50" relative="1" as="geometry">
            <mxPoint x="560" y="310" as="sourcePoint" />
            <mxPoint x="306" y="131" as="targetPoint" />
          </mxGeometry>
        </mxCell>
        <mxCell id="GFefVMlEvLliyub19L3t-53" value="" style="endArrow=classic;html=1;rounded=0;exitX=0.5;exitY=1;exitDx=0;exitDy=0;" edge="1" parent="1" source="GFefVMlEvLliyub19L3t-49" target="GFefVMlEvLliyub19L3t-50">
          <mxGeometry width="50" height="50" relative="1" as="geometry">
            <mxPoint x="560" y="710" as="sourcePoint" />
            <mxPoint x="610" y="660" as="targetPoint" />
          </mxGeometry>
        </mxCell>
        <mxCell id="GFefVMlEvLliyub19L3t-54" value="Kết thúc" style="ellipse;whiteSpace=wrap;html=1;" vertex="1" parent="1">
          <mxGeometry x="237.5" y="1170" width="120" height="80" as="geometry" />
        </mxCell>
        <mxCell id="GFefVMlEvLliyub19L3t-55" value="" style="endArrow=classic;html=1;rounded=0;exitX=0.5;exitY=1;exitDx=0;exitDy=0;" edge="1" parent="1" source="GFefVMlEvLliyub19L3t-50" target="GFefVMlEvLliyub19L3t-54">
          <mxGeometry width="50" height="50" relative="1" as="geometry">
            <mxPoint x="560" y="910" as="sourcePoint" />
            <mxPoint x="610" y="860" as="targetPoint" />
          </mxGeometry>
        </mxCell>
        <mxCell id="GFefVMlEvLliyub19L3t-56" value="" style="endArrow=classic;html=1;rounded=0;exitX=0.5;exitY=1;exitDx=0;exitDy=0;entryX=0.5;entryY=0;entryDx=0;entryDy=0;" edge="1" parent="1" source="GFefVMlEvLliyub19L3t-45" target="GFefVMlEvLliyub19L3t-49">
          <mxGeometry width="50" height="50" relative="1" as="geometry">
            <mxPoint x="560" y="310" as="sourcePoint" />
            <mxPoint x="610" y="260" as="targetPoint" />
          </mxGeometry>
        </mxCell>
        <mxCell id="GFefVMlEvLliyub19L3t-57" value="Đăng nhập" style="rounded=0;whiteSpace=wrap;html=1;" vertex="1" parent="1">
          <mxGeometry x="570" y="250" width="120" height="60" as="geometry" />
        </mxCell>
        <mxCell id="GFefVMlEvLliyub19L3t-58" value="" style="endArrow=classic;html=1;rounded=0;exitX=1;exitY=0.5;exitDx=0;exitDy=0;entryX=0;entryY=0.5;entryDx=0;entryDy=0;" edge="1" parent="1" source="GFefVMlEvLliyub19L3t-45" target="GFefVMlEvLliyub19L3t-57">
          <mxGeometry width="50" height="50" relative="1" as="geometry">
            <mxPoint x="560" y="310" as="sourcePoint" />
            <mxPoint x="610" y="260" as="targetPoint" />
          </mxGeometry>
        </mxCell>
        <mxCell id="GFefVMlEvLliyub19L3t-59" value="False" style="text;html=1;align=center;verticalAlign=middle;resizable=0;points=[];autosize=1;strokeColor=none;fillColor=none;" vertex="1" parent="1">
          <mxGeometry x="460" y="250" width="50" height="30" as="geometry" />
        </mxCell>
        <mxCell id="GFefVMlEvLliyub19L3t-60" value="" style="endArrow=classic;html=1;rounded=0;exitX=0.5;exitY=1;exitDx=0;exitDy=0;" edge="1" parent="1" source="GFefVMlEvLliyub19L3t-57">
          <mxGeometry width="50" height="50" relative="1" as="geometry">
            <mxPoint x="560" y="310" as="sourcePoint" />
            <mxPoint x="300" y="370" as="targetPoint" />
            <Array as="points">
              <mxPoint x="630" y="370" />
            </Array>
          </mxGeometry>
        </mxCell>
        <mxCell id="GFefVMlEvLliyub19L3t-61" value="True" style="text;html=1;align=center;verticalAlign=middle;resizable=0;points=[];autosize=1;strokeColor=none;fillColor=none;" vertex="1" parent="1">
          <mxGeometry x="240" y="620" width="50" height="30" as="geometry" />
        </mxCell>
        <mxCell id="GFefVMlEvLliyub19L3t-62" value="True" style="text;html=1;align=center;verticalAlign=middle;resizable=0;points=[];autosize=1;strokeColor=none;fillColor=none;" vertex="1" parent="1">
          <mxGeometry x="240" y="348" width="50" height="30" as="geometry" />
        </mxCell>
        <mxCell id="GFefVMlEvLliyub19L3t-63" value="False" style="text;html=1;strokeColor=none;fillColor=none;align=center;verticalAlign=middle;whiteSpace=wrap;rounded=0;" vertex="1" parent="1">
          <mxGeometry x="400" y="480" width="60" height="30" as="geometry" />
        </mxCell>
        <mxCell id="GFefVMlEvLliyub19L3t-64" value="Tải tệp&amp;nbsp;" style="rounded=0;whiteSpace=wrap;html=1;" vertex="1" parent="1">
          <mxGeometry x="490" y="490" width="120" height="60" as="geometry" />
        </mxCell>
        <mxCell id="GFefVMlEvLliyub19L3t-65" value="" style="endArrow=classic;html=1;rounded=0;exitX=1;exitY=0.5;exitDx=0;exitDy=0;entryX=0;entryY=0.5;entryDx=0;entryDy=0;" edge="1" parent="1" source="GFefVMlEvLliyub19L3t-49" target="GFefVMlEvLliyub19L3t-64">
          <mxGeometry width="50" height="50" relative="1" as="geometry">
            <mxPoint x="560" y="610" as="sourcePoint" />
            <mxPoint x="610" y="560" as="targetPoint" />
          </mxGeometry>
        </mxCell>
        <mxCell id="GFefVMlEvLliyub19L3t-67" value="Kiểm tra tệp có phải tệp nén" style="rhombus;whiteSpace=wrap;html=1;" vertex="1" parent="1">
          <mxGeometry x="1090" y="440" width="150" height="160" as="geometry" />
        </mxCell>
        <mxCell id="GFefVMlEvLliyub19L3t-69" value="Giải nén" style="rounded=0;whiteSpace=wrap;html=1;" vertex="1" parent="1">
          <mxGeometry x="1105" y="670" width="120" height="60" as="geometry" />
        </mxCell>
        <mxCell id="GFefVMlEvLliyub19L3t-70" value="Đổi tên tệp với dạng đã được định&amp;nbsp;" style="rounded=0;whiteSpace=wrap;html=1;" vertex="1" parent="1">
          <mxGeometry x="680" y="490" width="140" height="60" as="geometry" />
        </mxCell>
        <mxCell id="GFefVMlEvLliyub19L3t-71" value="" style="endArrow=classic;html=1;rounded=0;exitX=1;exitY=0.5;exitDx=0;exitDy=0;entryX=0;entryY=0.5;entryDx=0;entryDy=0;" edge="1" parent="1" source="GFefVMlEvLliyub19L3t-64" target="GFefVMlEvLliyub19L3t-70">
          <mxGeometry width="50" height="50" relative="1" as="geometry">
            <mxPoint x="560" y="610" as="sourcePoint" />
            <mxPoint x="610" y="560" as="targetPoint" />
          </mxGeometry>
        </mxCell>
        <mxCell id="GFefVMlEvLliyub19L3t-73" value="" style="endArrow=classic;html=1;rounded=0;exitX=0.5;exitY=1;exitDx=0;exitDy=0;entryX=0.5;entryY=0;entryDx=0;entryDy=0;" edge="1" parent="1" source="GFefVMlEvLliyub19L3t-67" target="GFefVMlEvLliyub19L3t-69">
          <mxGeometry width="50" height="50" relative="1" as="geometry">
            <mxPoint x="560" y="500" as="sourcePoint" />
            <mxPoint x="610" y="450" as="targetPoint" />
          </mxGeometry>
        </mxCell>
        <mxCell id="GFefVMlEvLliyub19L3t-74" value="Xóa bỏ file nén đã tải" style="rounded=0;whiteSpace=wrap;html=1;" vertex="1" parent="1">
          <mxGeometry x="1105" y="810" width="120" height="60" as="geometry" />
        </mxCell>
        <mxCell id="GFefVMlEvLliyub19L3t-75" value="" style="endArrow=classic;html=1;rounded=0;exitX=0.5;exitY=1;exitDx=0;exitDy=0;" edge="1" parent="1" source="GFefVMlEvLliyub19L3t-69" target="GFefVMlEvLliyub19L3t-74">
          <mxGeometry width="50" height="50" relative="1" as="geometry">
            <mxPoint x="560" y="900" as="sourcePoint" />
            <mxPoint x="610" y="850" as="targetPoint" />
          </mxGeometry>
        </mxCell>
        <mxCell id="GFefVMlEvLliyub19L3t-77" value="Ghi thông tin tệp vào database" style="rounded=0;whiteSpace=wrap;html=1;" vertex="1" parent="1">
          <mxGeometry x="900" y="490" width="120" height="60" as="geometry" />
        </mxCell>
        <mxCell id="GFefVMlEvLliyub19L3t-80" value="" style="endArrow=classic;html=1;rounded=0;exitX=0.992;exitY=0.5;exitDx=0;exitDy=0;exitPerimeter=0;" edge="1" parent="1" source="GFefVMlEvLliyub19L3t-77" target="GFefVMlEvLliyub19L3t-67">
          <mxGeometry width="50" height="50" relative="1" as="geometry">
            <mxPoint x="1010" y="440" as="sourcePoint" />
            <mxPoint x="1060" y="390" as="targetPoint" />
          </mxGeometry>
        </mxCell>
        <mxCell id="GFefVMlEvLliyub19L3t-81" value="" style="endArrow=classic;html=1;rounded=0;exitX=1;exitY=0.5;exitDx=0;exitDy=0;" edge="1" parent="1" source="GFefVMlEvLliyub19L3t-67">
          <mxGeometry width="50" height="50" relative="1" as="geometry">
            <mxPoint x="560" y="700" as="sourcePoint" />
            <mxPoint x="300" y="980" as="targetPoint" />
            <Array as="points">
              <mxPoint x="1230" y="970" />
            </Array>
          </mxGeometry>
        </mxCell>
        <mxCell id="GFefVMlEvLliyub19L3t-82" value="False" style="text;html=1;align=center;verticalAlign=middle;resizable=0;points=[];autosize=1;strokeColor=none;fillColor=none;" vertex="1" parent="1">
          <mxGeometry x="1240" y="730" width="50" height="30" as="geometry" />
        </mxCell>
        <mxCell id="GFefVMlEvLliyub19L3t-83" value="" style="endArrow=classic;html=1;rounded=0;exitX=0;exitY=0.5;exitDx=0;exitDy=0;" edge="1" parent="1" source="GFefVMlEvLliyub19L3t-50">
          <mxGeometry width="50" height="50" relative="1" as="geometry">
            <mxPoint x="560" y="900" as="sourcePoint" />
            <mxPoint x="298" y="410" as="targetPoint" />
            <Array as="points">
              <mxPoint x="-40" y="1050" />
              <mxPoint x="-40" y="410" />
            </Array>
          </mxGeometry>
        </mxCell>
        <mxCell id="GFefVMlEvLliyub19L3t-84" value="True" style="text;html=1;align=center;verticalAlign=middle;resizable=0;points=[];autosize=1;strokeColor=none;fillColor=none;" vertex="1" parent="1">
          <mxGeometry x="1095" y="610" width="50" height="30" as="geometry" />
        </mxCell>
        <mxCell id="GFefVMlEvLliyub19L3t-93" value="&lt;font style=&quot;font-size: 18px;&quot;&gt;Quá trình tải tệp trong một nhóm&lt;/font&gt;" style="text;html=1;strokeColor=none;fillColor=none;align=center;verticalAlign=middle;whiteSpace=wrap;rounded=0;" vertex="1" parent="1">
          <mxGeometry x="-230" y="350" width="160" height="290" as="geometry" />
        </mxCell>
        <mxCell id="GFefVMlEvLliyub19L3t-94" value="" style="endArrow=classic;html=1;rounded=0;exitX=1;exitY=0.5;exitDx=0;exitDy=0;" edge="1" parent="1" source="GFefVMlEvLliyub19L3t-70" target="GFefVMlEvLliyub19L3t-77">
          <mxGeometry width="50" height="50" relative="1" as="geometry">
            <mxPoint x="550" y="690" as="sourcePoint" />
            <mxPoint x="600" y="640" as="targetPoint" />
          </mxGeometry>
        </mxCell>
      </root>
    </mxGraphModel>
  </diagram>
</mxfile>
